PathFileType	4	(X/Y/Z)	55_1_52_p1_0-256_filt_butterworth.trc
DataRate	CameraRate	NumFrames	NumMarkers	Units	OrigDataRate	OrigDataStartFrame	OrigNumFrames
48.0	48.0	5	27	m	48.0	160	256
Frame#	Time	RHip			RKnee			RAnkle			RBigToe			RSmallToe			RHeel			LHip			LKnee			LAnkle			LBigToe			LSmallToe			LHeel			Neck			Head			Nose			RShoulder			RElbow			RWrist			RThumb			RIndex			RPinky			LShoulder			LElbow			LWrist			LThumb			LIndex			LPinky			
		X1	Y1	Z1	X2	Y2	Z2	X3	Y3	Z3	X4	Y4	Z4	X5	Y5	Z5	X6	Y6	Z6	X7	Y7	Z7	X8	Y8	Z8	X9	Y9	Z9	X10	Y10	Z10	X11	Y11	Z11	X12	Y12	Z12	X13	Y13	Z13	X14	Y14	Z14	X15	Y15	Z15	X16	Y16	Z16	X17	Y17	Z17	X18	Y18	Z18	X19	Y19	Z19	X20	Y20	Z20	X21	Y21	Z21	X22	Y22	Z22	X23	Y23	Z23	X24	Y24	Z24	X25	Y25	Z25	X26	Y26	Z26	X27	Y27	Z27	
160	3.333333333333333	0.3095157347841809	1.0028440242922367	0.5662043334384553	0.3398158065452612	0.5286395524733656	0.5801027538429844	0.32614966281875785	0.07722888284446006	0.596328653315382	0.28738586152895373	0.06324957495704521	0.43079195830427536	0.3489544170834334	0.06293842931809711	0.4388933580472353	0.3049353092412669	-0.0021229244319331516	0.6776507676909285	0.0959078401606352	0.9710052280441223	0.6027272290191289	0.09716353150352354	0.5069101501789265	0.5961852492399383	0.1040721781064293	0.07181491073334251	0.5873894135514697	0.12650229827885	0.06672410306089198	0.4239714478728733	0.07103159826804345	0.047411931349063755	0.4656848444252263	0.11785265055468049	0.014215736180464546	0.6229048661217876	0.21879050182847515	1.5007032142547112	0.5775071197408234	0.21532151698368984	1.7466294752606426	0.5190588383780194	0.20779221162349118	1.617120334338413	0.4573232117950858	0.34617439012028806	1.4316276121744616	0.5547549676462211	0.431387063228328	1.2511025079153157	0.3792697276939817	0.4579485251122536	1.4505927160481187	0.3480747524232225	0.39801953265125023	1.5449021902674391	0.41082163665716254	0.40508883896282205	1.5488100326206415	0.38424341390698785	0.41621562747777574	1.5164387191920479	0.34334501986982696	0.05760724631033656	1.4204164032178683	0.5794455233620506	0.009664454540818785	1.1589704847867826	0.5581905561592768	0.040341046170958184	0.9142647003877912	0.4888057736684609	0.10020241999036146	0.8422796257842056	0.4227901292234035	0.09643592482152719	0.821102892017289	0.40667229480592504	0.022342680349733086	0.810960733648113	0.43101668979182495	
161	3.3541666666666665	0.30869911479885126	1.0034203493349065	0.5649777354899306	0.3397862816890273	0.5284440568745737	0.5801251537768767	0.3259850479446634	0.07762213339996286	0.5955715008781729	0.28743868178568316	0.06347402462080803	0.43079120011671745	0.3488674493638473	0.0629221223638636	0.4387703623767011	0.30494838660544665	-0.002358536590516808	0.6776193542945649	0.09588885192573533	0.9709858132442454	0.6029639230224796	0.09719571517129001	0.5070381490794758	0.5961776019596184	0.10402506791376413	0.07212765896699216	0.5872995940257703	0.12589847414533942	0.06816780803087336	0.421977735495394	0.07103014088591492	0.04743672438726798	0.46565998768048966	0.11772820503163971	0.013872617816273341	0.6233826085532019	0.2194013278381504	1.5001476157724982	0.5825160949977916	0.2153308461101728	1.7466219787095916	0.5190652967313834	0.2070276110287195	1.6169108250275428	0.4600828039772814	0.3473512085325007	1.4320935187466346	0.5571933358339284	0.4276952355616902	1.2413996277899022	0.38655372736408444	0.4597004209391291	1.443999818314782	0.3425887245038386	0.4023460948269237	1.543415956634397	0.3924518623763693	0.41209861180183366	1.5466082594648318	0.3651355573452925	0.42296054617182005	1.5094172489105173	0.3357059934110776	0.057606416708297734	1.420124208869087	0.5795360218938194	0.009049043268127468	1.15684480917514	0.5606352521780495	0.040033329930153086	0.9135522067868836	0.4885467700626115	0.1001898555760771	0.8417551683429413	0.42261754697770254	0.09640844411822078	0.8210922360930117	0.4066883182005191	0.021226300006589496	0.8115560018879641	0.42945024931484077	
162	3.375	0.3078095347739303	1.0034449569129884	0.5636177374562584	0.3397466555928209	0.5281840031470612	0.5801486824203718	0.32592757359891616	0.07772224281383598	0.5951243395588978	0.2874086437157355	0.06421637559334738	0.43077543004674174	0.3488347172373405	0.06289235168867859	0.43873820855103574	0.30495985166583706	-0.002701236001783335	0.6776555140086761	0.0958982501264595	0.9706978371358028	0.6032965897270688	0.09721458016899298	0.5070817595928042	0.5961781061722607	0.10399095403066291	0.07236410816061713	0.5872313874753045	0.1255463345407723	0.06913607181528658	0.4207919685262843	0.07105095179326586	0.04752813595175895	0.46565848119824743	0.11754055807634962	0.013364674623996159	0.6241092632508171	0.21948233076510826	1.499495947946603	0.5864028399924937	0.21532715262297733	1.7466006292935312	0.5191343943506336	0.20645839373657038	1.6170409859741282	0.46204996820656086	0.3484052869984511	1.4323719423631966	0.559432909633645	0.42449949627358685	1.2300103662469313	0.39451615854904476	0.46141524695884883	1.436365241237176	0.33644086858941896	0.4077391617721876	1.5405889596228508	0.3750530624319303	0.41968865515891085	1.543424522718749	0.3480752833169194	0.4300433035965425	1.502968699696026	0.32359994238860995	0.0575659501686476	1.4205917194353508	0.5796545479137668	0.008268865209423182	1.155038550035145	0.5634698652933272	0.03940213484214627	0.913038163478189	0.48818731648789976	0.10018184050641808	0.8411416158438222	0.42239387768520376	0.09640410293222991	0.821156886847122	0.40670713443594386	0.020172066547153047	0.8119178967971081	0.4284156513774515	
163	3.395833333333333	0.3070484516378198	1.0026279230555115	0.5621667597146481	0.3396979549665537	0.527869735311242	0.5801686619794019	0.3259052171489305	0.07755817351530339	0.5949399221879558	0.2873663842602816	0.06496271778776783	0.4306968812738468	0.34884839612357577	0.06285820880513361	0.43880338568217203	0.30496561016429635	-0.0031564369564878727	0.6777382829933866	0.09593625157567151	0.9699935832983235	0.6037056068690637	0.09721657706551269	0.5070048306710946	0.5961819812503192	0.10397038961650308	0.07251025591203379	0.5871859031829982	0.1254801291415722	0.06943094747577747	0.4205862635498974	0.07107374795167477	0.047626686915049996	0.46567695683089194	0.11730050187056827	0.012715074080183658	0.6250468968932701	0.21908567148584962	1.498962178938028	0.5887160940352603	0.21532181305220077	1.7465064195007016	0.5192657232721486	0.20613433141179338	1.6175234407154513	0.46307250794004173	0.34920840381031043	1.4321424186772955	0.5611864179430789	0.42220725581494833	1.2179180758801298	0.4032719724620656	0.46262647237206134	1.4281249561950977	0.33003698644553914	0.4144521678649741	1.5363597275291943	0.3581646721833461	0.4275879923527109	1.5392009665111028	0.33422909925493505	0.43752965774149044	1.4970820889412273	0.30842655231331906	0.05751203309104752	1.421534156124571	0.5797755180659334	0.007639741017659046	1.1538483127069947	0.565604667032369	0.03851824039538243	0.912817906545258	0.48774771004091183	0.10017540791277912	0.8405238171428497	0.42214391713340005	0.09641063602855421	0.8212435982319266	0.4067138250980374	0.01924491932404271	0.8122074151157361	0.42800357664866123	
164	3.4166666666666665	0.3064425042066119	1.0011233843570213	0.5606238558874509	0.33964215089914607	0.5275097990827443	0.58018175835918	0.3258903187691517	0.07709058602003577	0.5950800534698446	0.28744509105525856	0.06516737936066215	0.4305553630161002	0.3488787726214605	0.06283025275182798	0.4388894367976146	0.3049603860794248	-0.0037365863659574875	0.6778439506567322	0.09600001609745897	0.9689189968137424	0.6041716299156161	0.09720489313258716	0.506803623255589	0.5961667644684953	0.10396586234114738	0.07254802640831241	0.5871544850614197	0.12555306544399128	0.06909105450898151	0.4209910772800493	0.07104673016355234	0.04753263415996397	0.46571004518094683	0.11701285091671881	0.011946645589989976	0.62616234140359	0.2186230908015968	1.498726424905368	0.5895706890854853	0.2154210096126541	1.746403044530983	0.5193976357510293	0.2060273471780525	1.618510673555509	0.4632523354737506	0.34995707057195147	1.4310844102185263	0.5623192803052866	0.421153029944409	1.206201684904953	0.41245629800232897	0.4625766738598186	1.4175892778036536	0.3245711085203422	0.4217340089194336	1.5294068836299306	0.34096340596953734	0.4355410780863501	1.5319560160173122	0.3228366912227418	0.44490219658784447	1.4888405406398197	0.2924048570724761	0.057466836259453535	1.4223905508188013	0.5798631564601827	0.0073510940320609865	1.1535516399268932	0.566383109428559	0.03757110525969848	0.9129052538656022	0.48727848641798877	0.10016336840289573	0.8399729373278572	0.42189656702822015	0.09639696258851496	0.8211958168775338	0.40669733696692456	0.01840835357904657	0.8124927333607699	0.4278242355732085	
